<svg xmlns="http://www.w3.org/2000/svg" version="1.1" xmlns:xlink="http://www.w3.org/1999/xlink" xmlns:svgjs="http://svgjs.dev/svgjs" width="2000" height="1247" viewBox="0 0 2000 1247"><g transform="matrix(1,0,0,1,-1.2121212121212466,0.504858299595071)"><svg viewBox="0 0 396 247" data-background-color="#444444" preserveAspectRatio="xMidYMid meet" height="1247" width="2000" xmlns="http://www.w3.org/2000/svg" xmlns:xlink="http://www.w3.org/1999/xlink"><g id="tight-bounds" transform="matrix(1,0,0,1,0.2400000000000091,-0.09999999999999432)"><svg viewBox="0 0 395.52 247.2" height="247.2" width="395.52"><g><svg></svg></g><g><svg viewBox="0 0 395.52 247.2" height="247.2" width="395.52"><g transform="matrix(1,0,0,1,75.54432,50.4294425995126)"><svg viewBox="0 0 244.43135999999998 146.3411148009748" height="146.3411148009748" width="244.43135999999998"><g><svg viewBox="0 0 244.43135999999998 146.3411148009748" height="146.3411148009748" width="244.43135999999998"><g><svg viewBox="0 0 244.43135999999998 146.3411148009748" height="146.3411148009748" width="244.43135999999998"><g><svg viewBox="0 0 244.43135999999998 146.3411148009748" height="146.3411148009748" width="244.43135999999998"><g id="textblocktransform"><svg viewBox="0 0 244.43135999999998 146.3411148009748" height="146.3411148009748" width="244.43135999999998" id="textblock"><g><svg viewBox="0 0 244.43135999999998 146.3411148009748" height="146.3411148009748" width="244.43135999999998"><g transform="matrix(1,0,0,1,0,0)"><svg width="244.43135999999998" viewBox="3.61 -35.99 60.11 35.99" height="146.3411148009748" data-palette-color="#ffffff"><path d="M13.33-17.48L3.61-35.99 10.3-35.99 16.16-22.51 16.16-11.33 10.99 0 4.2 0 13.33-17.48ZM24.02-35.99L30.71-35.99 21-17.48 30.13 0 23.34 0 18.16-12.35 18.16-23.49 24.02-35.99ZM47.07-12.01L57.03-35.99 63.72-35.99 53.02-14.65 53.02 0 47.07 0 47.07-12.01ZM36.91-35.99L43.6-35.99 49.02-21.97 46.38-15.58 36.91-35.99Z" opacity="1" transform="matrix(1,0,0,1,0,0)" fill="#ffffff" class="wordmark-text-0" data-fill-palette-color="primary" id="text-0"></path></svg></g></svg></g></svg></g></svg></g></svg></g></svg></g></svg></g><g><path d="M0 123.6c0-68.262 55.338-123.6 123.6-123.6 32.554 0 62.168 12.585 84.243 33.156l-10.014 0c-20.196-16.595-46.049-26.557-74.229-26.557-64.618 0-117.001 52.383-117.001 117.001 0 64.618 52.383 117.001 117.001 117.001 28.18 0 54.033-9.962 74.229-26.557l10.014 0c-22.075 20.57-51.689 33.156-84.243 33.156-68.262 0-123.6-55.338-123.6-123.6z" fill="#ffffff" stroke="transparent" data-fill-palette-color="tertiary"></path></g></svg></g><defs></defs></svg><rect width="395.52" height="247.2" fill="none" stroke="none" visibility="hidden"></rect></g></svg></g></svg>